# xmcd CD database file
#
# Track frame offsets:
#	150
#	19840
#	39065
#	58502
#	83287
#	105300
#	127810
#	146957
#	169437
#	190422
#	213380
#	233575
#	255705
#	278777
#	291230
#	309600
#	341710
#
# Disc length: 4795 seconds
#
# Revision: 0
# Processed by: cddbd v1.5PL3 Copyright (c) Steve Scherf et al.
# Submitted via: CDex 1.51
#
DISCID=ef12b911
DTITLE=ダンス★マン - グレイテスト・ヒッツ
DYEAR=2002
DGENRE=Disco
TTITLE0=ワンBOXのオーナー
TTITLE1=接吻のテーマ
TTITLE2=バスタオル舞うお風呂
TTITLE3=ヘンなあだ名はイヤ
TTITLE4=勝利V絶対つかもう!
TTITLE5=恋と愛の天国
TTITLE6=じゃあ、明日にすれば?
TTITLE7=いつもゴールデンがラブラドール
TTITLE8=夢中の半年
TTITLE9=寝たのね
TTITLE10=漢字読めるけど書けない
TTITLE11=ミルク好き
TTITLE12=ダンス部 部長南原
TTITLE13=応援
TTITLE14=良くある名字「斎藤」
TTITLE15=背の高いヤツはジャマ
TTITLE16=DataTrack 17
EXTD=YEAR: 2002
EXTT0=
EXTT1=
EXTT2=
EXTT3=
EXTT4=
EXTT5=
EXTT6=
EXTT7=
EXTT8=
EXTT9=
EXTT10=
EXTT11=
EXTT12=
EXTT13=
EXTT14=
EXTT15=
EXTT16=
PLAYORDER=
